<svg xmlns="http://www.w3.org/2000/svg" xmlns:xlink="http://www.w3.org/1999/xlink" width="500" zoomAndPan="magnify" viewBox="0 0 375 374.999991" height="500" preserveAspectRatio="xMidYMid meet" version="1.0"><defs><clipPath id="691e28f12c"><path d="M 150 10.179688 L 236 10.179688 L 236 96 L 150 96 Z M 150 10.179688 " clip-rule="nonzero"/></clipPath><clipPath id="465d9f4d6f"><path d="M 10.179688 150 L 96 150 L 96 236 L 10.179688 236 Z M 10.179688 150 " clip-rule="nonzero"/></clipPath><clipPath id="6960f5d4a8"><path d="M 150 290 L 236 290 L 236 374.679688 L 150 374.679688 Z M 150 290 " clip-rule="nonzero"/></clipPath><clipPath id="ffaf3829c8"><path d="M 290 150 L 374.679688 150 L 374.679688 236 L 290 236 Z M 290 150 " clip-rule="nonzero"/></clipPath></defs><path fill="#00ff08" d="M 192.585938 64.0625 C 182.660156 64.0625 174.585938 55.988281 174.585938 46.0625 C 174.585938 36.136719 182.664062 28.0625 192.585938 28.0625 C 202.511719 28.0625 210.585938 36.136719 210.585938 46.0625 C 210.585938 55.988281 202.519531 64.0625 192.585938 64.0625 Z M 192.585938 36.347656 C 187.230469 36.347656 182.878906 40.707031 182.878906 46.054688 C 182.878906 51.402344 187.238281 55.765625 192.585938 55.765625 C 197.941406 55.765625 202.296875 51.402344 202.296875 46.054688 C 202.296875 40.707031 197.941406 36.347656 192.585938 36.347656 Z M 192.585938 36.347656 " fill-opacity="1" fill-rule="nonzero"/><path fill="#00ff08" d="M 218.074219 85.371094 C 216.101562 85.371094 214.359375 83.960938 213.996094 81.957031 C 212.144531 71.582031 203.140625 64.0625 192.585938 64.0625 C 182.039062 64.0625 173.035156 71.59375 171.171875 81.957031 C 170.765625 84.210938 168.609375 85.710938 166.363281 85.304688 C 164.105469 84.898438 162.605469 82.742188 163.011719 80.496094 C 165.582031 66.167969 178.019531 55.78125 192.585938 55.78125 C 207.164062 55.78125 219.601562 66.179688 222.152344 80.511719 C 222.558594 82.769531 221.050781 84.925781 218.804688 85.324219 C 218.5625 85.355469 218.316406 85.371094 218.074219 85.371094 Z M 218.074219 85.371094 " fill-opacity="1" fill-rule="nonzero"/><g clip-path="url(#691e28f12c)"><path fill="#00ff08" d="M 192.585938 95.089844 C 169.179688 95.089844 150.128906 76.042969 150.128906 52.628906 C 150.128906 29.214844 169.179688 10.179688 192.585938 10.179688 C 216 10.179688 235.046875 29.222656 235.046875 52.636719 C 235.046875 76.054688 216 95.089844 192.585938 95.089844 Z M 192.585938 18.46875 C 173.75 18.46875 158.417969 33.792969 158.417969 52.636719 C 158.417969 71.484375 173.742188 86.804688 192.585938 86.804688 C 211.433594 86.804688 226.753906 71.484375 226.753906 52.636719 C 226.753906 33.792969 211.425781 18.46875 192.585938 18.46875 Z M 192.585938 18.46875 " fill-opacity="1" fill-rule="nonzero"/></g><path fill="#00ff08" d="M 52.636719 204.011719 C 42.714844 204.011719 34.636719 195.9375 34.636719 186.011719 C 34.636719 176.085938 42.714844 168.011719 52.636719 168.011719 C 62.5625 168.011719 70.636719 176.085938 70.636719 186.011719 C 70.636719 195.9375 62.5625 204.011719 52.636719 204.011719 Z M 52.636719 176.292969 C 47.28125 176.292969 42.929688 180.65625 42.929688 186.003906 C 42.929688 191.351562 47.289062 195.710938 52.636719 195.710938 C 57.984375 195.710938 62.347656 191.351562 62.347656 186.003906 C 62.347656 180.65625 57.996094 176.292969 52.636719 176.292969 Z M 52.636719 176.292969 " fill-opacity="1" fill-rule="nonzero"/><path fill="#00ff08" d="M 78.117188 225.328125 C 76.144531 225.328125 74.402344 223.917969 74.039062 221.914062 C 72.1875 211.539062 63.183594 204.019531 52.628906 204.019531 C 42.082031 204.019531 33.078125 211.550781 31.214844 221.914062 C 30.808594 224.167969 28.652344 225.660156 26.40625 225.261719 C 24.148438 224.855469 22.648438 222.699219 23.054688 220.453125 C 25.625 206.125 38.0625 195.738281 52.628906 195.738281 C 67.207031 195.738281 79.644531 206.132812 82.195312 220.46875 C 82.59375 222.726562 81.09375 224.882812 78.847656 225.277344 C 78.605469 225.304688 78.367188 225.328125 78.117188 225.328125 Z M 78.117188 225.328125 " fill-opacity="1" fill-rule="nonzero"/><g clip-path="url(#465d9f4d6f)"><path fill="#00ff08" d="M 52.636719 235.046875 C 29.222656 235.046875 10.179688 216 10.179688 192.585938 C 10.179688 169.179688 29.222656 150.128906 52.636719 150.128906 C 76.054688 150.128906 95.097656 169.171875 95.097656 192.585938 C 95.089844 216 76.042969 235.046875 52.636719 235.046875 Z M 52.636719 158.417969 C 33.792969 158.417969 18.46875 173.75 18.46875 192.585938 C 18.46875 211.425781 33.792969 226.753906 52.636719 226.753906 C 71.484375 226.753906 86.804688 211.425781 86.804688 192.585938 C 86.804688 173.75 71.476562 158.417969 52.636719 158.417969 Z M 52.636719 158.417969 " fill-opacity="1" fill-rule="nonzero"/></g><path fill="#00ff08" d="M 192.585938 343.96875 C 182.660156 343.96875 174.585938 335.894531 174.585938 325.96875 C 174.585938 316.042969 182.664062 307.96875 192.585938 307.96875 C 202.511719 307.96875 210.585938 316.042969 210.585938 325.96875 C 210.585938 335.894531 202.519531 343.96875 192.585938 343.96875 Z M 192.585938 316.25 C 187.230469 316.25 182.878906 320.605469 182.878906 325.960938 C 182.878906 331.316406 187.238281 335.667969 192.585938 335.667969 C 197.941406 335.667969 202.296875 331.316406 202.296875 325.960938 C 202.296875 320.605469 197.941406 316.25 192.585938 316.25 Z M 192.585938 316.25 " fill-opacity="1" fill-rule="nonzero"/><path fill="#00ff08" d="M 218.074219 365.277344 C 216.101562 365.277344 214.359375 363.867188 213.996094 361.863281 C 212.144531 351.496094 203.140625 343.96875 192.585938 343.96875 C 182.039062 343.96875 173.035156 351.496094 171.171875 361.863281 C 170.765625 364.117188 168.609375 365.617188 166.363281 365.210938 C 164.105469 364.804688 162.605469 362.648438 163.011719 360.402344 C 165.582031 346.082031 178.019531 335.6875 192.585938 335.6875 C 207.164062 335.6875 219.601562 346.082031 222.152344 360.417969 C 222.558594 362.675781 221.050781 364.828125 218.804688 365.226562 C 218.5625 365.261719 218.316406 365.277344 218.074219 365.277344 Z M 218.074219 365.277344 " fill-opacity="1" fill-rule="nonzero"/><g clip-path="url(#6960f5d4a8)"><path fill="#00ff08" d="M 192.585938 374.996094 C 169.179688 374.996094 150.128906 355.949219 150.128906 332.535156 C 150.128906 309.128906 169.171875 290.074219 192.585938 290.074219 C 216 290.074219 235.046875 309.121094 235.046875 332.535156 C 235.046875 355.949219 216 374.996094 192.585938 374.996094 Z M 192.585938 298.375 C 173.75 298.375 158.417969 313.699219 158.417969 332.542969 C 158.417969 351.390625 173.75 366.703125 192.585938 366.703125 C 211.425781 366.703125 226.753906 351.375 226.753906 332.535156 C 226.753906 313.699219 211.425781 298.375 192.585938 298.375 Z M 192.585938 298.375 " fill-opacity="1" fill-rule="nonzero"/></g><path fill="#00ff08" d="M 332.542969 204.011719 C 322.617188 204.011719 314.542969 195.9375 314.542969 186.011719 C 314.542969 176.085938 322.617188 168.011719 332.542969 168.011719 C 342.46875 168.011719 350.542969 176.085938 350.542969 186.011719 C 350.542969 195.9375 342.46875 204.011719 332.542969 204.011719 Z M 332.542969 176.292969 C 327.1875 176.292969 322.835938 180.65625 322.835938 186.003906 C 322.835938 191.351562 327.1875 195.710938 332.542969 195.710938 C 337.898438 195.710938 342.253906 191.351562 342.253906 186.003906 C 342.253906 180.65625 337.898438 176.292969 332.542969 176.292969 Z M 332.542969 176.292969 " fill-opacity="1" fill-rule="nonzero"/><path fill="#00ff08" d="M 358.023438 225.328125 C 356.050781 225.328125 354.308594 223.917969 353.945312 221.914062 C 352.09375 211.539062 343.089844 204.019531 332.535156 204.019531 C 321.988281 204.019531 312.984375 211.550781 311.117188 221.914062 C 310.710938 224.167969 308.566406 225.667969 306.308594 225.261719 C 304.054688 224.855469 302.554688 222.699219 302.960938 220.453125 C 305.53125 206.125 317.96875 195.738281 332.535156 195.738281 C 347.113281 195.738281 359.546875 206.132812 362.101562 220.46875 C 362.507812 222.726562 361 224.882812 358.753906 225.277344 C 358.511719 225.304688 358.261719 225.328125 358.023438 225.328125 Z M 358.023438 225.328125 " fill-opacity="1" fill-rule="nonzero"/><g clip-path="url(#ffaf3829c8)"><path fill="#00ff08" d="M 332.535156 235.046875 C 309.128906 235.046875 290.074219 216 290.074219 192.585938 C 290.074219 169.179688 309.121094 150.128906 332.535156 150.128906 C 355.949219 150.128906 374.996094 169.171875 374.996094 192.585938 C 374.996094 216 355.949219 235.046875 332.535156 235.046875 Z M 332.535156 158.417969 C 313.699219 158.417969 298.367188 173.742188 298.367188 192.585938 C 298.367188 211.433594 313.6875 226.753906 332.535156 226.753906 C 351.382812 226.753906 366.703125 211.425781 366.703125 192.585938 C 366.703125 173.75 351.375 158.417969 332.535156 158.417969 Z M 332.535156 158.417969 " fill-opacity="1" fill-rule="nonzero"/></g><path fill="#00ff08" d="M 69.121094 137.988281 C 68.492188 137.988281 67.84375 137.839844 67.238281 137.53125 C 65.199219 136.496094 64.386719 134 65.421875 131.960938 C 80.214844 102.925781 104.742188 79.617188 134.488281 66.328125 C 135.019531 66.085938 135.601562 65.960938 136.179688 65.960938 C 138.46875 65.960938 140.328125 67.820312 140.328125 70.109375 C 140.328125 71.855469 139.242188 73.359375 137.707031 73.964844 C 109.757812 86.5 86.714844 108.421875 72.8125 135.71875 C 72.082031 137.167969 70.628906 137.988281 69.121094 137.988281 Z M 69.121094 137.988281 " fill-opacity="1" fill-rule="nonzero"/><path fill="#00ff08" d="M 316.035156 137.945312 C 314.359375 137.945312 312.910156 136.953125 312.261719 135.519531 C 298.265625 108.171875 275.136719 86.277344 247.117188 73.824219 C 245.617188 73.199219 244.554688 71.714844 244.554688 69.992188 C 244.554688 67.703125 246.40625 65.847656 248.703125 65.847656 L 248.710938 65.847656 C 249.289062 65.847656 249.863281 65.96875 250.394531 66.203125 C 280.242188 79.445312 304.875 102.777344 319.742188 131.910156 C 320.039062 132.492188 320.199219 133.136719 320.199219 133.792969 C 320.179688 136.082031 318.324219 137.945312 316.035156 137.945312 Z M 316.035156 137.945312 " fill-opacity="1" fill-rule="nonzero"/><path fill="#00ff08" d="M 131.796875 325.253906 C 131.164062 325.253906 130.535156 325.113281 129.960938 324.832031 C 100.953125 310.636719 77.378906 286.75 63.582031 257.566406 C 62.605469 255.492188 63.492188 253.023438 65.554688 252.042969 C 67.628906 251.066406 70.101562 251.953125 71.078125 254.015625 C 84.0625 281.476562 106.234375 303.964844 133.519531 317.335938 C 134.945312 317.992188 135.941406 319.433594 135.941406 321.109375 C 135.933594 323.40625 134.082031 325.253906 131.796875 325.253906 Z M 131.796875 325.253906 " fill-opacity="1" fill-rule="nonzero"/><path fill="#00ff08" d="M 258.003906 322.902344 C 256.527344 322.902344 255.09375 322.105469 254.347656 320.710938 C 253.261719 318.695312 254.023438 316.183594 256.039062 315.097656 C 282.960938 300.65625 304.363281 277.234375 316.292969 249.167969 C 317.1875 247.058594 319.617188 246.082031 321.730469 246.96875 C 323.835938 247.863281 324.824219 250.300781 323.929688 252.410156 C 311.261719 282.207031 288.550781 307.074219 259.96875 322.402344 C 259.332031 322.742188 258.660156 322.902344 258.003906 322.902344 Z M 258.003906 322.902344 " fill-opacity="1" fill-rule="nonzero"/><path fill="#00ff08" d="M 316.035156 137.9375 C 315.644531 137.9375 315.246094 137.882812 314.859375 137.765625 L 296.585938 132.375 C 294.386719 131.730469 293.136719 129.421875 293.78125 127.226562 C 294.429688 125.03125 296.734375 123.777344 298.929688 124.425781 L 313.648438 128.769531 L 319.167969 115.703125 C 320.066406 113.597656 322.496094 112.609375 324.601562 113.496094 C 326.707031 114.390625 327.691406 116.820312 326.804688 118.925781 L 319.839844 135.402344 C 319.195312 136.976562 317.667969 137.9375 316.035156 137.9375 Z M 316.035156 137.9375 " fill-opacity="1" fill-rule="nonzero"/><path fill="#00ff08" d="M 129.78125 91.058594 C 129.292969 91.058594 128.792969 90.96875 128.304688 90.785156 C 126.164062 89.972656 125.097656 87.578125 125.910156 85.4375 L 130.875 72.421875 L 118.40625 67.3125 C 116.28125 66.441406 115.269531 64.023438 116.140625 61.90625 C 117.011719 59.785156 119.425781 58.773438 121.546875 59.644531 L 137.765625 66.285156 C 139.847656 67.140625 140.867188 69.496094 140.070312 71.601562 L 133.660156 88.398438 C 133.023438 90.039062 131.457031 91.058594 129.78125 91.058594 Z M 129.78125 91.058594 " fill-opacity="1" fill-rule="nonzero"/><path fill="#00ff08" d="M 61.027344 276.570312 C 60.539062 276.570312 60.042969 276.484375 59.5625 276.296875 C 57.421875 275.484375 56.34375 273.09375 57.148438 270.949219 L 63.441406 254.324219 C 64.246094 252.199219 66.609375 251.113281 68.738281 251.894531 L 86.109375 258.230469 C 88.257812 259.015625 89.367188 261.394531 88.589844 263.542969 C 87.800781 265.691406 85.421875 266.800781 83.273438 266.023438 L 69.75 261.097656 L 64.910156 273.890625 C 64.277344 275.550781 62.703125 276.570312 61.027344 276.570312 Z M 61.027344 276.570312 " fill-opacity="1" fill-rule="nonzero"/><path fill="#00ff08" d="M 274.605469 328.148438 C 274.191406 328.148438 273.765625 328.082031 273.351562 327.957031 L 256.746094 322.710938 C 254.738281 322.078125 253.527344 320.046875 253.925781 317.984375 L 257.265625 300.429688 C 257.699219 298.183594 259.863281 296.707031 262.117188 297.132812 C 264.363281 297.5625 265.839844 299.726562 265.417969 301.980469 L 262.765625 315.910156 L 275.855469 320.046875 C 278.035156 320.738281 279.246094 323.066406 278.558594 325.253906 C 277.996094 327.023438 276.363281 328.148438 274.605469 328.148438 Z M 274.605469 328.148438 " fill-opacity="1" fill-rule="nonzero"/><path fill="#00ff08" d="M 145.351562 224.75 C 144.753906 224.75 144.15625 224.617188 143.59375 224.359375 C 142.132812 223.679688 141.207031 222.210938 141.207031 220.601562 L 141.207031 205.605469 C 126.007812 203.574219 114.25 190.523438 114.25 174.777344 C 114.25 157.621094 128.203125 143.675781 145.351562 143.675781 L 191.855469 143.675781 C 209.011719 143.675781 222.957031 157.628906 222.957031 174.777344 C 222.957031 191.921875 209.003906 205.878906 191.855469 205.878906 L 169.480469 205.878906 L 148.011719 223.785156 C 147.25 224.417969 146.304688 224.75 145.351562 224.75 Z M 145.351562 151.960938 C 132.773438 151.960938 122.542969 162.191406 122.542969 174.769531 C 122.542969 187.347656 132.773438 197.578125 145.351562 197.578125 C 147.640625 197.578125 149.496094 199.433594 149.496094 201.722656 L 149.496094 211.738281 L 165.316406 198.539062 C 166.0625 197.917969 167 197.578125 167.96875 197.578125 L 191.855469 197.578125 C 204.433594 197.578125 214.667969 187.347656 214.667969 174.769531 C 214.667969 162.191406 204.433594 151.960938 191.855469 151.960938 Z M 145.351562 151.960938 " fill-opacity="1" fill-rule="nonzero"/><path fill="#00ff08" d="M 241.605469 241.503906 C 240.652344 241.503906 239.707031 241.171875 238.953125 240.542969 L 218.984375 223.886719 L 198.183594 223.886719 C 185.28125 223.886719 173.730469 215.261719 170.085938 202.910156 C 169.4375 200.710938 170.691406 198.40625 172.886719 197.761719 C 175.082031 197.113281 177.390625 198.367188 178.035156 200.5625 C 180.648438 209.410156 188.929688 215.59375 198.183594 215.59375 L 220.488281 215.59375 C 221.457031 215.59375 222.394531 215.933594 223.140625 216.558594 L 237.460938 228.503906 L 237.460938 219.742188 C 237.460938 217.453125 239.316406 215.59375 241.605469 215.59375 C 247.226562 215.59375 252.507812 213.40625 256.480469 209.441406 C 260.449219 205.472656 262.632812 200.199219 262.632812 194.585938 C 262.632812 182.992188 253.195312 173.558594 241.605469 173.558594 L 218.273438 173.558594 C 215.984375 173.558594 214.128906 171.699219 214.128906 169.414062 C 214.128906 167.125 215.984375 165.265625 218.273438 165.265625 L 241.605469 165.265625 C 257.773438 165.265625 270.921875 178.417969 270.921875 194.585938 C 270.921875 202.410156 267.871094 209.773438 262.339844 215.304688 C 257.796875 219.847656 252.011719 222.71875 245.75 223.605469 L 245.75 237.359375 C 245.75 238.96875 244.820312 240.4375 243.363281 241.117188 C 242.808594 241.371094 242.203125 241.503906 241.605469 241.503906 Z M 241.605469 241.503906 " fill-opacity="1" fill-rule="nonzero"/><path fill="#00ff08" d="M 149.5625 178.914062 C 148.46875 178.914062 147.40625 178.476562 146.636719 177.703125 C 146.445312 177.511719 146.273438 177.296875 146.113281 177.074219 C 145.964844 176.851562 145.839844 176.609375 145.742188 176.359375 C 145.632812 176.105469 145.550781 175.847656 145.5 175.582031 C 145.441406 175.316406 145.417969 175.042969 145.417969 174.769531 C 145.417969 173.683594 145.867188 172.613281 146.636719 171.84375 C 146.828125 171.652344 147.035156 171.476562 147.265625 171.328125 C 147.492188 171.179688 147.730469 171.046875 147.980469 170.945312 C 148.226562 170.839844 148.484375 170.765625 148.75 170.707031 C 149.289062 170.597656 149.835938 170.597656 150.375 170.707031 C 150.640625 170.765625 150.898438 170.839844 151.148438 170.945312 C 151.402344 171.046875 151.644531 171.179688 151.867188 171.328125 C 152.09375 171.476562 152.308594 171.652344 152.5 171.84375 C 153.269531 172.613281 153.707031 173.683594 153.707031 174.769531 C 153.707031 175.042969 153.683594 175.316406 153.625 175.582031 C 153.578125 175.847656 153.492188 176.105469 153.394531 176.359375 C 153.285156 176.609375 153.160156 176.851562 153.011719 177.074219 C 152.863281 177.296875 152.6875 177.511719 152.5 177.703125 C 152.308594 177.894531 152.09375 178.070312 151.867188 178.21875 C 151.644531 178.367188 151.402344 178.5 151.148438 178.597656 C 150.898438 178.707031 150.640625 178.78125 150.375 178.839844 C 150.109375 178.890625 149.835938 178.914062 149.5625 178.914062 Z M 149.5625 178.914062 " fill-opacity="1" fill-rule="nonzero"/><path fill="#00ff08" d="M 168.601562 178.914062 C 168.335938 178.914062 168.0625 178.890625 167.796875 178.839844 C 167.53125 178.78125 167.265625 178.707031 167.015625 178.597656 C 166.769531 178.5 166.527344 178.367188 166.304688 178.21875 C 166.078125 178.070312 165.863281 177.894531 165.671875 177.703125 C 165.484375 177.511719 165.308594 177.296875 165.160156 177.074219 C 165.011719 176.851562 164.878906 176.609375 164.777344 176.359375 C 164.671875 176.105469 164.59375 175.847656 164.539062 175.582031 C 164.488281 175.316406 164.453125 175.042969 164.453125 174.769531 C 164.453125 173.683594 164.902344 172.613281 165.671875 171.84375 C 165.863281 171.652344 166.078125 171.476562 166.304688 171.328125 C 166.527344 171.179688 166.769531 171.046875 167.015625 170.945312 C 167.265625 170.839844 167.53125 170.765625 167.796875 170.707031 C 169.140625 170.441406 170.574219 170.878906 171.535156 171.84375 C 172.304688 172.613281 172.746094 173.683594 172.746094 174.769531 C 172.746094 175.042969 172.722656 175.316406 172.671875 175.582031 C 172.613281 175.847656 172.539062 176.105469 172.429688 176.359375 C 172.332031 176.609375 172.199219 176.851562 172.050781 177.074219 C 171.898438 177.296875 171.726562 177.511719 171.535156 177.703125 C 170.765625 178.476562 169.695312 178.914062 168.601562 178.914062 Z M 168.601562 178.914062 " fill-opacity="1" fill-rule="nonzero"/><path fill="#00ff08" d="M 187.644531 178.914062 C 187.371094 178.914062 187.097656 178.890625 186.832031 178.839844 C 186.566406 178.78125 186.308594 178.707031 186.054688 178.597656 C 185.804688 178.5 185.5625 178.367188 185.339844 178.21875 C 185.117188 178.070312 184.902344 177.894531 184.710938 177.703125 C 183.9375 176.933594 183.5 175.863281 183.5 174.769531 C 183.5 174.503906 183.523438 174.230469 183.582031 173.964844 C 183.632812 173.699219 183.714844 173.433594 183.816406 173.183594 C 183.921875 172.9375 184.046875 172.695312 184.195312 172.472656 C 184.34375 172.25 184.519531 172.03125 184.710938 171.84375 C 184.902344 171.652344 185.117188 171.476562 185.339844 171.328125 C 185.5625 171.179688 185.804688 171.046875 186.054688 170.945312 C 186.308594 170.839844 186.566406 170.765625 186.832031 170.707031 C 187.371094 170.597656 187.917969 170.597656 188.457031 170.707031 C 188.714844 170.765625 188.980469 170.839844 189.230469 170.945312 C 189.476562 171.046875 189.71875 171.179688 189.941406 171.328125 C 190.175781 171.476562 190.382812 171.652344 190.570312 171.84375 C 190.761719 172.03125 190.9375 172.25 191.085938 172.472656 C 191.242188 172.695312 191.367188 172.9375 191.476562 173.183594 C 191.574219 173.433594 191.65625 173.699219 191.707031 173.964844 C 191.765625 174.230469 191.789062 174.503906 191.789062 174.769531 C 191.789062 175.863281 191.34375 176.933594 190.570312 177.703125 C 190.382812 177.894531 190.175781 178.070312 189.941406 178.21875 C 189.71875 178.367188 189.476562 178.5 189.230469 178.597656 C 188.980469 178.707031 188.714844 178.78125 188.457031 178.839844 C 188.183594 178.890625 187.910156 178.914062 187.644531 178.914062 Z M 187.644531 178.914062 " fill-opacity="1" fill-rule="nonzero"/></svg>