<svg xmlns="http://www.w3.org/2000/svg" xmlns:xlink="http://www.w3.org/1999/xlink" width="500" zoomAndPan="magnify" viewBox="0 0 375 374.999991" height="500" preserveAspectRatio="xMidYMid meet" version="1.0"><defs><clipPath id="519121ef0d"><path d="M 2.335938 2.335938 L 372.835938 2.335938 L 372.835938 372.835938 L 2.335938 372.835938 Z M 2.335938 2.335938 " clip-rule="nonzero"/></clipPath></defs><g clip-path="url(#519121ef0d)"><path fill="#00ff08" d="M 317.613281 372.660156 L 57.386719 372.660156 C 27.03125 372.660156 2.335938 347.96875 2.335938 317.613281 L 2.335938 57.386719 C 2.335938 27.03125 27.03125 2.335938 57.386719 2.335938 L 317.613281 2.335938 C 347.96875 2.335938 372.660156 27.03125 372.660156 57.386719 L 372.660156 317.613281 C 372.660156 347.96875 347.96875 372.660156 317.613281 372.660156 Z M 57.386719 22.355469 C 38.070312 22.355469 22.355469 38.070312 22.355469 57.386719 L 22.355469 317.613281 C 22.355469 336.929688 38.070312 352.644531 57.386719 352.644531 L 317.613281 352.644531 C 336.929688 352.644531 352.644531 336.929688 352.644531 317.613281 L 352.644531 57.386719 C 352.644531 38.070312 336.929688 22.355469 317.613281 22.355469 Z M 57.386719 22.355469 " fill-opacity="1" fill-rule="nonzero"/></g><path fill="#00ff08" d="M 187.5 292.589844 C 129.550781 292.589844 82.40625 245.449219 82.40625 187.5 C 82.40625 129.550781 129.550781 82.40625 187.5 82.40625 C 245.449219 82.40625 292.589844 129.550781 292.589844 187.5 C 292.589844 245.449219 245.449219 292.589844 187.5 292.589844 Z M 187.5 102.425781 C 140.589844 102.425781 102.425781 140.589844 102.425781 187.5 C 102.425781 234.410156 140.589844 272.574219 187.5 272.574219 C 234.410156 272.574219 272.574219 234.410156 272.574219 187.5 C 272.574219 140.589844 234.410156 102.425781 187.5 102.425781 Z M 187.5 102.425781 " fill-opacity="1" fill-rule="nonzero"/><path fill="#00ff08" d="M 297.597656 112.433594 C 278.28125 112.433594 262.566406 96.71875 262.566406 77.402344 C 262.566406 58.085938 278.28125 42.371094 297.597656 42.371094 C 316.910156 42.371094 332.625 58.085938 332.625 77.402344 C 332.625 96.71875 316.910156 112.433594 297.597656 112.433594 Z M 297.597656 62.390625 C 289.316406 62.390625 282.582031 69.125 282.582031 77.402344 C 282.582031 85.679688 289.316406 92.417969 297.597656 92.417969 C 305.875 92.417969 312.609375 85.679688 312.609375 77.402344 C 312.609375 69.125 305.875 62.390625 297.597656 62.390625 Z M 297.597656 62.390625 " fill-opacity="1" fill-rule="nonzero"/></svg>