<svg xmlns="http://www.w3.org/2000/svg" xmlns:xlink="http://www.w3.org/1999/xlink" width="500" zoomAndPan="magnify" viewBox="0 0 375 374.999991" height="500" preserveAspectRatio="xMidYMid meet" version="1.0"><defs><clipPath id="d51b1e4061"><path d="M 16.363281 3 L 98 3 L 98 131 L 16.363281 131 Z M 16.363281 3 " clip-rule="nonzero"/></clipPath></defs><path fill="#f79745" d="M 148.230469 310.738281 C 133.730469 310.738281 121.972656 298.972656 121.972656 284.460938 C 121.972656 269.949219 133.730469 258.183594 148.230469 258.183594 C 162.730469 258.183594 174.480469 269.949219 174.480469 284.460938 C 174.480469 298.972656 162.730469 310.738281 148.230469 310.738281 Z M 353.996094 153.082031 C 347.515625 67.449219 275.9375 -0.0234375 186.476562 11.652344 C 102.664062 22.589844 47.601562 99.882812 47.601562 180.007812 C 47.601562 284.8125 129.753906 374.960938 187.125 347.710938 C 232.683594 326.078125 167.347656 290.9375 209.8125 268.566406 C 234.445312 255.589844 253.277344 291.269531 275.9375 288.03125 C 312.238281 282.839844 358.199219 208.554688 353.996094 153.082031 " fill-opacity="1" fill-rule="nonzero"/><path fill="#0f0a0a" d="M 148.230469 310.738281 L 148.230469 308.511719 C 141.582031 308.511719 135.589844 305.820312 131.234375 301.46875 C 126.878906 297.105469 124.199219 291.105469 124.191406 284.460938 C 124.199219 277.8125 126.878906 271.8125 131.234375 267.453125 C 135.589844 263.097656 141.582031 260.410156 148.230469 260.410156 C 154.871094 260.410156 160.863281 263.097656 165.21875 267.453125 C 169.574219 271.8125 172.253906 277.8125 172.253906 284.460938 C 172.253906 291.105469 169.574219 297.105469 165.21875 301.46875 C 160.863281 305.820312 154.871094 308.511719 148.230469 308.511719 L 148.230469 312.960938 C 163.957031 312.960938 176.699219 300.203125 176.703125 284.460938 C 176.699219 268.714844 163.957031 255.964844 148.230469 255.957031 C 132.5 255.964844 119.75 268.714844 119.75 284.460938 C 119.75 300.203125 132.5 312.960938 148.230469 312.960938 Z M 353.996094 153.082031 L 356.214844 152.917969 C 353.179688 112.820312 336.0625 76.632812 309.546875 50.449219 C 283.035156 24.269531 247.082031 8.101562 206.539062 8.109375 C 199.871094 8.109375 193.078125 8.546875 186.1875 9.445312 C 143.667969 14.988281 108.417969 37.394531 83.867188 68.507812 C 59.308594 99.617188 45.378906 139.433594 45.378906 180.007812 C 45.382812 226.496094 61.339844 270.054688 84.191406 302.09375 C 95.621094 318.113281 108.785156 331.261719 122.621094 340.441406 C 136.445312 349.621094 150.972656 354.847656 165.09375 354.851562 C 172.988281 354.859375 180.738281 353.207031 188.074219 349.726562 C 194.8125 346.519531 199.390625 342.957031 202.300781 338.988281 C 205.21875 335.027344 206.351562 330.699219 206.335938 326.4375 C 206.324219 319.835938 203.828125 313.34375 201.480469 307.027344 C 199.117188 300.722656 196.890625 294.585938 196.910156 289.125 C 196.917969 285.75 197.6875 282.652344 199.757812 279.582031 C 201.832031 276.519531 205.292969 273.457031 210.847656 270.53125 C 214.371094 268.683594 217.660156 267.941406 220.878906 267.9375 C 225.039062 267.9375 229.160156 269.207031 233.328125 271.230469 C 239.589844 274.261719 245.859375 278.964844 252.324219 283 C 255.566406 285.015625 258.863281 286.863281 262.289062 288.222656 C 265.707031 289.585938 269.269531 290.464844 272.980469 290.464844 C 274.0625 290.464844 275.148438 290.390625 276.25 290.234375 C 285.582031 288.882812 295.125 283.425781 304.304688 275.304688 C 318.066406 263.105469 331.042969 244.789062 340.652344 224.3125 C 350.253906 203.832031 356.484375 181.203125 356.488281 160.332031 C 356.488281 157.828125 356.398438 155.359375 356.214844 152.917969 L 353.996094 153.082031 L 351.78125 153.253906 C 351.957031 155.574219 352.039062 157.9375 352.039062 160.332031 C 352.058594 186.980469 341.304688 217.382812 326.242188 241.570312 C 318.71875 253.667969 310.128906 264.210938 301.355469 271.972656 C 292.59375 279.753906 283.660156 284.691406 275.621094 285.828125 C 274.738281 285.949219 273.859375 286.011719 272.980469 286.011719 C 268.980469 286.015625 264.96875 284.75 260.871094 282.722656 C 254.714844 279.695312 248.460938 274.984375 241.933594 270.949219 C 238.667969 268.929688 235.316406 267.082031 231.824219 265.71875 C 228.332031 264.359375 224.6875 263.488281 220.878906 263.488281 C 216.953125 263.484375 212.882812 264.429688 208.777344 266.59375 C 202.78125 269.757812 198.675781 273.25 196.078125 277.085938 C 193.472656 280.917969 192.457031 285.050781 192.460938 289.125 C 192.480469 295.753906 194.972656 302.265625 197.320312 308.585938 C 199.691406 314.894531 201.910156 321.007812 201.894531 326.4375 C 201.882812 329.957031 201.039062 333.171875 198.714844 336.355469 C 196.390625 339.535156 192.464844 342.714844 186.167969 345.703125 C 179.433594 348.898438 172.375 350.40625 165.09375 350.40625 C 152.09375 350.410156 138.367188 345.554688 125.078125 336.734375 C 105.144531 323.515625 86.277344 301.386719 72.457031 274.027344 C 58.621094 246.675781 49.824219 214.101562 49.824219 180.007812 C 49.824219 140.453125 63.425781 101.566406 87.351562 71.261719 C 111.289062 40.957031 145.476562 19.25 186.765625 13.859375 C 193.46875 12.980469 200.066406 12.558594 206.539062 12.558594 C 245.886719 12.566406 280.675781 28.207031 306.417969 53.617188 C 332.160156 79.035156 348.828125 114.214844 351.78125 153.253906 L 353.996094 153.082031 " fill-opacity="1" fill-rule="nonzero"/><path fill="#b26843" d="M 296.195312 230.304688 C 296.195312 247.773438 282.039062 261.933594 264.582031 261.933594 C 247.128906 261.933594 232.980469 247.773438 232.980469 230.304688 C 232.980469 212.835938 247.128906 198.679688 264.582031 198.679688 C 282.039062 198.679688 296.195312 212.835938 296.195312 230.304688 " fill-opacity="1" fill-rule="nonzero"/><path fill="#0f0a0a" d="M 296.195312 230.304688 L 293.96875 230.304688 C 293.96875 238.429688 290.683594 245.769531 285.363281 251.09375 C 280.035156 256.417969 272.707031 259.707031 264.582031 259.707031 C 256.464844 259.707031 249.132812 256.417969 243.808594 251.09375 C 238.492188 245.769531 235.203125 238.429688 235.203125 230.304688 C 235.203125 222.179688 238.492188 214.84375 243.808594 209.511719 C 249.132812 204.191406 256.464844 200.90625 264.582031 200.90625 C 272.707031 200.90625 280.035156 204.191406 285.363281 209.511719 C 290.683594 214.84375 293.96875 222.179688 293.96875 230.304688 L 298.414062 230.304688 C 298.414062 211.605469 283.265625 196.457031 264.582031 196.453125 C 245.902344 196.457031 230.761719 211.605469 230.761719 230.304688 C 230.761719 249 245.902344 264.15625 264.582031 264.15625 C 283.265625 264.15625 298.414062 249 298.414062 230.304688 L 296.195312 230.304688 " fill-opacity="1" fill-rule="nonzero"/><path fill="#b26843" d="M 327.792969 149.839844 C 327.792969 167.308594 313.640625 181.46875 296.195312 181.46875 C 278.738281 181.46875 264.582031 167.308594 264.582031 149.839844 C 264.582031 132.375 278.738281 118.214844 296.195312 118.214844 C 313.640625 118.214844 327.792969 132.375 327.792969 149.839844 " fill-opacity="1" fill-rule="nonzero"/><path fill="#0f0a0a" d="M 327.792969 149.839844 L 325.570312 149.839844 C 325.566406 157.964844 322.285156 165.304688 316.964844 170.628906 C 311.644531 175.957031 304.308594 179.242188 296.195312 179.242188 C 288.070312 179.242188 280.742188 175.957031 275.414062 170.628906 C 270.09375 165.304688 266.808594 157.964844 266.808594 149.839844 C 266.808594 141.714844 270.09375 134.378906 275.414062 129.046875 C 280.742188 123.726562 288.070312 120.441406 296.195312 120.4375 C 304.308594 120.441406 311.644531 123.726562 316.964844 129.046875 C 322.285156 134.378906 325.566406 141.714844 325.570312 149.839844 L 330.015625 149.839844 C 330.015625 131.148438 314.875 115.988281 296.195312 115.988281 C 277.507812 115.988281 262.363281 131.148438 262.359375 149.839844 C 262.363281 168.535156 277.507812 183.691406 296.195312 183.695312 C 314.875 183.691406 330.015625 168.535156 330.015625 149.839844 L 327.792969 149.839844 " fill-opacity="1" fill-rule="nonzero"/><path fill="#b26843" d="M 270.421875 80.75 C 270.421875 98.214844 256.273438 112.375 238.816406 112.375 C 221.363281 112.375 207.214844 98.214844 207.214844 80.75 C 207.214844 63.285156 221.363281 49.117188 238.816406 49.117188 C 256.273438 49.117188 270.421875 63.285156 270.421875 80.75 " fill-opacity="1" fill-rule="nonzero"/><path fill="#0f0a0a" d="M 270.421875 80.75 L 268.195312 80.75 C 268.195312 88.875 264.914062 96.210938 259.589844 101.539062 C 254.265625 106.863281 246.9375 110.148438 238.816406 110.148438 C 230.699219 110.148438 223.367188 106.863281 218.046875 101.539062 C 212.722656 96.210938 209.441406 88.875 209.441406 80.75 C 209.441406 72.625 212.722656 65.28125 218.046875 59.957031 C 223.367188 54.632812 230.699219 51.34375 238.816406 51.34375 C 246.9375 51.34375 254.265625 54.632812 259.589844 59.957031 C 264.914062 65.28125 268.195312 72.625 268.195312 80.75 L 272.640625 80.75 C 272.640625 62.050781 257.503906 46.894531 238.816406 46.894531 C 220.132812 46.894531 204.996094 62.050781 204.996094 80.75 C 204.996094 99.445312 220.132812 114.601562 238.816406 114.601562 C 257.503906 114.601562 272.640625 99.445312 272.640625 80.75 L 270.421875 80.75 " fill-opacity="1" fill-rule="nonzero"/><path fill="#b26843" d="M 187.769531 80.75 C 187.769531 98.214844 173.617188 112.375 156.164062 112.375 C 138.710938 112.375 124.5625 98.214844 124.5625 80.75 C 124.5625 63.285156 138.710938 49.117188 156.164062 49.117188 C 173.617188 49.117188 187.769531 63.285156 187.769531 80.75 " fill-opacity="1" fill-rule="nonzero"/><path fill="#0f0a0a" d="M 187.769531 80.75 L 185.546875 80.75 C 185.546875 88.875 182.257812 96.210938 176.941406 101.539062 C 171.613281 106.863281 164.28125 110.148438 156.164062 110.148438 C 148.042969 110.148438 140.714844 106.863281 135.390625 101.539062 C 130.070312 96.210938 126.785156 88.875 126.785156 80.75 C 126.785156 72.625 130.070312 65.28125 135.390625 59.957031 C 140.714844 54.632812 148.042969 51.34375 156.164062 51.34375 C 164.28125 51.34375 171.613281 54.632812 176.941406 59.957031 C 182.257812 65.28125 185.546875 72.625 185.546875 80.75 L 189.992188 80.75 C 189.992188 62.050781 174.84375 46.894531 156.164062 46.894531 C 137.480469 46.894531 122.339844 62.050781 122.339844 80.75 C 122.339844 99.445312 137.480469 114.601562 156.164062 114.601562 C 174.84375 114.601562 189.992188 99.445312 189.992188 80.75 L 187.769531 80.75 " fill-opacity="1" fill-rule="nonzero"/><path fill="#64c9a1" d="M 300.402344 224.625 C 300.402344 242.085938 286.253906 256.246094 268.800781 256.246094 C 251.347656 256.246094 237.191406 242.085938 237.191406 224.625 C 237.191406 207.152344 251.347656 192.992188 268.800781 192.992188 C 286.253906 192.992188 300.402344 207.152344 300.402344 224.625 " fill-opacity="1" fill-rule="nonzero"/><path fill="#000000" d="M 300.402344 224.625 L 298.179688 224.625 C 298.179688 232.746094 294.894531 240.082031 289.574219 245.410156 C 284.25 250.734375 276.917969 254.019531 268.800781 254.019531 C 260.679688 254.019531 253.347656 250.734375 248.023438 245.410156 C 242.707031 240.082031 239.417969 232.746094 239.417969 224.625 C 239.417969 216.496094 242.707031 209.160156 248.023438 203.828125 C 253.347656 198.503906 260.679688 195.21875 268.800781 195.21875 C 276.917969 195.21875 284.25 198.503906 289.574219 203.828125 C 294.894531 209.160156 298.179688 216.496094 298.179688 224.625 L 302.628906 224.625 C 302.621094 205.925781 287.480469 190.765625 268.800781 190.765625 C 250.117188 190.765625 234.972656 205.925781 234.972656 224.625 C 234.972656 243.3125 250.117188 258.46875 268.800781 258.472656 C 287.480469 258.46875 302.621094 243.3125 302.628906 224.625 L 300.402344 224.625 " fill-opacity="1" fill-rule="nonzero"/><path fill="#ee2a28" d="M 332.003906 144.15625 C 332.003906 161.625 317.855469 175.78125 300.402344 175.78125 C 282.945312 175.78125 268.800781 161.625 268.800781 144.15625 C 268.800781 126.6875 282.945312 112.527344 300.402344 112.527344 C 317.855469 112.527344 332.003906 126.6875 332.003906 144.15625 " fill-opacity="1" fill-rule="nonzero"/><path fill="#0f0a0a" d="M 332.003906 144.15625 L 329.785156 144.15625 C 329.78125 152.28125 326.496094 159.621094 321.175781 164.949219 C 315.851562 170.269531 308.523438 173.5625 300.402344 173.5625 C 292.285156 173.5625 284.953125 170.269531 279.628906 164.949219 C 274.308594 159.621094 271.023438 152.285156 271.023438 144.15625 C 271.023438 136.03125 274.308594 128.695312 279.628906 123.367188 C 284.953125 118.042969 292.285156 114.753906 300.402344 114.753906 C 308.523438 114.753906 315.851562 118.042969 321.175781 123.367188 C 326.496094 128.695312 329.78125 136.03125 329.785156 144.15625 L 334.230469 144.15625 C 334.230469 125.460938 319.082031 110.304688 300.402344 110.300781 C 281.71875 110.304688 266.582031 125.460938 266.582031 144.15625 C 266.582031 162.855469 281.71875 178.007812 300.402344 178.007812 C 319.082031 178.007812 334.230469 162.855469 334.230469 144.15625 L 332.003906 144.15625 " fill-opacity="1" fill-rule="nonzero"/><path fill="#fbbf09" d="M 274.632812 75.0625 C 274.632812 92.535156 260.484375 106.691406 243.03125 106.691406 C 225.578125 106.691406 211.429688 92.535156 211.429688 75.0625 C 211.429688 57.597656 225.578125 43.4375 243.03125 43.4375 C 260.484375 43.4375 274.632812 57.597656 274.632812 75.0625 " fill-opacity="1" fill-rule="nonzero"/><path fill="#0f0a0a" d="M 274.632812 75.0625 L 272.410156 75.0625 C 272.410156 83.1875 269.125 90.523438 263.804688 95.851562 C 258.480469 101.179688 251.148438 104.464844 243.03125 104.464844 C 234.910156 104.464844 227.582031 101.179688 222.253906 95.851562 C 216.9375 90.523438 213.652344 83.1875 213.648438 75.0625 C 213.652344 66.9375 216.9375 59.601562 222.253906 54.273438 C 227.582031 48.945312 234.910156 45.660156 243.03125 45.660156 C 251.148438 45.660156 258.480469 48.945312 263.804688 54.273438 C 269.125 59.601562 272.410156 66.9375 272.410156 75.0625 L 276.851562 75.0625 C 276.851562 56.367188 261.714844 41.214844 243.03125 41.210938 C 224.351562 41.214844 209.203125 56.367188 209.203125 75.0625 C 209.203125 93.761719 224.351562 108.910156 243.03125 108.917969 C 261.710938 108.910156 276.851562 93.757812 276.851562 75.0625 L 274.632812 75.0625 " fill-opacity="1" fill-rule="nonzero"/><path fill="#42a3ab" d="M 191.980469 75.0625 C 191.980469 92.535156 177.832031 106.691406 160.375 106.691406 C 142.925781 106.691406 128.777344 92.535156 128.777344 75.0625 C 128.777344 57.597656 142.925781 43.4375 160.375 43.4375 C 177.832031 43.4375 191.980469 57.597656 191.980469 75.0625 " fill-opacity="1" fill-rule="nonzero"/><path fill="#0f0a0a" d="M 191.980469 75.0625 L 189.753906 75.0625 C 189.753906 83.1875 186.472656 90.523438 181.152344 95.851562 C 175.832031 101.179688 168.5 104.464844 160.375 104.464844 C 152.257812 104.464844 144.925781 101.179688 139.605469 95.851562 C 134.285156 90.523438 131 83.1875 131 75.0625 C 131 66.9375 134.285156 59.601562 139.605469 54.273438 C 144.925781 48.945312 152.257812 45.660156 160.375 45.660156 C 168.5 45.660156 175.832031 48.945312 181.152344 54.273438 C 186.472656 59.601562 189.753906 66.9375 189.753906 75.0625 L 194.203125 75.0625 C 194.203125 56.367188 179.0625 41.214844 160.375 41.210938 C 141.691406 41.214844 126.554688 56.367188 126.554688 75.0625 C 126.554688 93.757812 141.691406 108.910156 160.375 108.917969 C 179.0625 108.910156 194.203125 93.757812 194.203125 75.0625 L 191.980469 75.0625 " fill-opacity="1" fill-rule="nonzero"/><path fill="#b26843" d="M 124.5625 144.15625 C 124.5625 161.625 110.410156 175.78125 92.964844 175.78125 C 75.507812 175.78125 61.355469 161.625 61.355469 144.15625 C 61.355469 126.6875 75.507812 112.527344 92.964844 112.527344 C 110.410156 112.527344 124.5625 126.6875 124.5625 144.15625 " fill-opacity="1" fill-rule="nonzero"/><path fill="#0f0a0a" d="M 124.5625 144.15625 L 122.339844 144.15625 C 122.339844 152.28125 119.054688 159.621094 113.734375 164.949219 C 108.414062 170.269531 101.082031 173.5625 92.964844 173.5625 C 84.839844 173.5625 77.511719 170.269531 72.183594 164.949219 C 66.863281 159.621094 63.582031 152.28125 63.578125 144.15625 C 63.582031 136.03125 66.863281 128.695312 72.183594 123.367188 C 77.511719 118.042969 84.839844 114.753906 92.964844 114.753906 C 101.082031 114.753906 108.414062 118.042969 113.734375 123.367188 C 119.054688 128.695312 122.339844 136.03125 122.339844 144.15625 L 126.785156 144.15625 C 126.785156 125.460938 111.644531 110.304688 92.964844 110.300781 C 74.277344 110.304688 59.132812 125.460938 59.132812 144.15625 C 59.132812 162.855469 74.277344 178.007812 92.964844 178.007812 C 111.644531 178.007812 126.785156 162.855469 126.785156 144.15625 L 124.5625 144.15625 " fill-opacity="1" fill-rule="nonzero"/><path fill="#9841a6" d="M 128.777344 138.46875 C 128.777344 155.9375 114.625 170.097656 97.171875 170.097656 C 79.714844 170.097656 65.570312 155.9375 65.570312 138.46875 C 65.570312 121.003906 79.714844 106.847656 97.171875 106.847656 C 114.625 106.847656 128.777344 121.003906 128.777344 138.46875 " fill-opacity="1" fill-rule="nonzero"/><path fill="#0f0a0a" d="M 128.777344 138.46875 L 126.554688 138.46875 C 126.554688 146.597656 123.265625 153.933594 117.949219 159.261719 C 112.621094 164.585938 105.292969 167.875 97.171875 167.875 C 89.054688 167.871094 81.722656 164.585938 76.398438 159.261719 C 71.082031 153.933594 67.792969 146.597656 67.792969 138.46875 C 67.792969 130.34375 71.082031 123.007812 76.398438 117.679688 C 81.722656 112.359375 89.054688 109.074219 97.171875 109.066406 C 105.292969 109.074219 112.621094 112.359375 117.949219 117.679688 C 123.265625 123.007812 126.554688 130.34375 126.554688 138.46875 L 131 138.46875 C 131 119.773438 115.851562 104.621094 97.171875 104.621094 C 78.488281 104.621094 63.351562 119.773438 63.351562 138.46875 C 63.351562 157.167969 78.488281 172.320312 97.171875 172.320312 C 115.851562 172.320312 131 157.167969 131 138.46875 L 128.777344 138.46875 " fill-opacity="1" fill-rule="nonzero"/><path fill="#ffffff" d="M 94.738281 85.707031 C 96.691406 105.820312 84.503906 124.457031 64.578125 127.730469 C 44.65625 131 29.035156 116.6875 22.589844 97.539062 C 16.675781 79.980469 17.710938 57.019531 25.84375 36.980469 C 25.84375 36.980469 27.824219 49.074219 31.339844 57.433594 C 30.988281 31.007812 44.863281 7.378906 44.863281 7.378906 C 44.863281 7.378906 69.972656 41.441406 76.851562 66.351562 C 80.816406 55.546875 69.886719 34.609375 69.886719 34.609375 C 69.886719 34.609375 91.480469 52.035156 94.738281 85.707031 " fill-opacity="1" fill-rule="nonzero"/><g clip-path="url(#d51b1e4061)"><path fill="#0f0a0a" d="M 94.738281 85.707031 L 92.53125 85.921875 C 92.65625 87.257812 92.722656 88.585938 92.722656 89.90625 C 92.722656 98.65625 89.914062 106.871094 84.957031 113.226562 C 79.996094 119.585938 72.921875 124.097656 64.214844 125.53125 C 62.414062 125.828125 60.65625 125.972656 58.941406 125.972656 C 50.921875 125.964844 43.847656 122.890625 37.96875 117.691406 C 32.101562 112.5 27.5 105.164062 24.695312 96.828125 C 22.277344 89.660156 21.050781 81.480469 21.050781 72.949219 C 21.046875 61.339844 23.328125 49.085938 27.902344 37.820312 L 25.84375 36.980469 L 23.648438 37.34375 C 23.652344 37.371094 24.152344 40.433594 25.101562 44.570312 C 26.054688 48.710938 27.445312 53.90625 29.292969 58.292969 L 33.710938 68.804688 L 33.5625 57.398438 C 33.558594 57.078125 33.558594 56.757812 33.558594 56.4375 C 33.550781 43.820312 36.851562 31.78125 40.179688 22.933594 C 41.839844 18.511719 43.503906 14.882812 44.742188 12.371094 C 45.363281 11.113281 45.878906 10.140625 46.234375 9.484375 C 46.414062 9.152344 46.554688 8.90625 46.644531 8.742188 L 46.75 8.554688 L 46.78125 8.503906 L 44.863281 7.378906 L 43.074219 8.699219 C 43.074219 8.699219 43.167969 8.824219 43.347656 9.078125 C 44.71875 10.957031 51 19.722656 57.71875 30.886719 C 64.441406 42.042969 71.597656 55.640625 74.710938 66.945312 L 76.550781 73.621094 L 78.941406 67.117188 C 79.664062 65.136719 79.9375 62.984375 79.941406 60.773438 C 79.9375 57.726562 79.414062 54.539062 78.652344 51.441406 C 76.359375 42.179688 71.894531 33.664062 71.855469 33.582031 L 69.886719 34.609375 L 68.488281 36.34375 L 69.457031 35.140625 L 68.488281 36.339844 L 68.488281 36.34375 L 69.457031 35.140625 L 68.488281 36.339844 L 68.539062 36.382812 C 69.121094 36.871094 74.378906 41.359375 79.847656 49.671875 C 85.3125 57.984375 90.996094 70.09375 92.53125 85.921875 L 94.738281 85.707031 L 96.953125 85.492188 C 95.28125 68.21875 88.898438 55.082031 82.933594 46.28125 C 76.957031 37.476562 71.402344 32.980469 71.28125 32.878906 L 62.972656 26.179688 L 67.914062 35.640625 L 67.929688 35.675781 C 68.132812 36.066406 70.050781 39.828125 71.902344 44.773438 C 72.824219 47.246094 73.730469 50.011719 74.402344 52.777344 C 75.074219 55.546875 75.496094 58.320312 75.492188 60.773438 C 75.496094 62.609375 75.257812 64.253906 74.765625 65.585938 L 76.851562 66.351562 L 78.996094 65.761719 C 77.21875 59.324219 74.304688 52.417969 70.941406 45.636719 C 60.859375 25.316406 46.691406 6.113281 46.652344 6.054688 L 44.65625 3.34375 L 42.945312 6.25 C 42.902344 6.332031 39.460938 12.191406 36.015625 21.371094 C 32.574219 30.546875 29.113281 43.042969 29.109375 56.4375 C 29.109375 56.78125 29.113281 57.121094 29.117188 57.460938 L 31.339844 57.433594 L 33.386719 56.566406 C 31.714844 52.597656 30.355469 47.566406 29.4375 43.574219 C 28.980469 41.574219 28.625 39.824219 28.390625 38.585938 C 28.273438 37.960938 28.183594 37.46875 28.121094 37.128906 C 28.09375 36.964844 28.070312 36.832031 28.054688 36.746094 L 28.035156 36.621094 L 26.753906 28.8125 L 23.78125 36.148438 C 18.980469 47.972656 16.605469 60.765625 16.601562 72.949219 C 16.605469 81.90625 17.890625 90.542969 20.484375 98.253906 C 23.507812 107.21875 28.472656 115.210938 35.019531 121.023438 C 41.5625 126.828125 49.753906 130.429688 58.941406 130.417969 C 60.902344 130.417969 62.902344 130.257812 64.9375 129.925781 C 74.761719 128.320312 82.875 123.144531 88.460938 115.964844 C 94.058594 108.785156 97.167969 99.605469 97.167969 89.90625 C 97.167969 88.445312 97.097656 86.96875 96.953125 85.492188 L 94.738281 85.707031 " fill-opacity="1" fill-rule="nonzero"/></g><path fill="#f79745" d="M 113.777344 345.640625 C 114.871094 364.410156 95.542969 367.578125 90.59375 349.445312 C 84.769531 323.898438 58.617188 222.941406 52.816406 183.503906 C 47.023438 144.070312 85.5 135.75 93.332031 176.421875 C 101.488281 218.777344 111.699219 320.824219 113.777344 345.640625 " fill-opacity="1" fill-rule="nonzero"/><path fill="#0f0a0a" d="M 113.777344 345.640625 L 111.558594 345.773438 C 111.585938 346.242188 111.597656 346.699219 111.597656 347.148438 C 111.597656 351.386719 110.40625 354.4375 108.78125 356.394531 C 107.144531 358.347656 105.082031 359.273438 102.9375 359.28125 C 101.070312 359.277344 99.089844 358.558594 97.257812 356.90625 C 95.433594 355.253906 93.765625 352.636719 92.734375 348.859375 L 90.59375 349.445312 L 92.757812 348.949219 C 89.832031 336.117188 81.84375 304.515625 73.859375 271.164062 C 69.867188 254.492188 65.875 237.390625 62.523438 222.003906 C 59.171875 206.625 56.453125 192.945312 55.019531 183.183594 C 54.632812 180.542969 54.445312 178.054688 54.445312 175.734375 C 54.445312 167.757812 56.578125 161.734375 59.652344 157.777344 C 62.746094 153.820312 66.71875 151.882812 70.820312 151.875 C 74.710938 151.878906 78.839844 153.628906 82.542969 157.640625 C 86.238281 161.648438 89.441406 167.949219 91.148438 176.839844 C 95.203125 197.878906 99.796875 233.980469 103.628906 267.855469 C 107.453125 301.742188 110.527344 333.460938 111.5625 345.828125 L 113.777344 345.640625 L 111.558594 345.773438 L 113.777344 345.640625 L 115.992188 345.457031 C 114.949219 333.011719 111.878906 301.292969 108.042969 267.359375 C 104.210938 233.421875 99.617188 197.3125 95.519531 175.996094 C 93.6875 166.488281 90.207031 159.402344 85.816406 154.625 C 81.441406 149.855469 76.089844 147.417969 70.820312 147.425781 C 65.257812 147.410156 59.929688 150.148438 56.140625 155.050781 C 52.339844 159.953125 50.003906 166.976562 50.003906 175.734375 C 50.003906 178.289062 50.199219 180.988281 50.617188 183.832031 C 52.085938 193.785156 54.816406 207.519531 58.179688 222.953125 C 63.222656 246.101562 69.691406 273.066406 75.449219 296.636719 C 81.207031 320.210938 86.253906 340.40625 88.425781 349.941406 L 88.433594 349.984375 L 88.445312 350.03125 C 89.65625 354.476562 91.710938 357.882812 94.273438 360.203125 C 96.828125 362.523438 99.902344 363.734375 102.9375 363.730469 C 106.425781 363.738281 109.800781 362.136719 112.199219 359.238281 C 114.609375 356.34375 116.046875 352.214844 116.046875 347.148438 C 116.046875 346.613281 116.03125 346.070312 116 345.511719 L 115.992188 345.484375 L 115.992188 345.457031 L 113.777344 345.640625 " fill-opacity="1" fill-rule="nonzero"/><path fill="#bdbcbc" d="M 89.375 159.851562 L 51.335938 166.097656 L 44.789062 126.121094 L 82.828125 119.882812 L 89.375 159.851562 " fill-opacity="1" fill-rule="nonzero"/><path fill="#0f0a0a" d="M 89.375 159.851562 L 89.015625 157.660156 L 53.167969 163.539062 L 47.339844 127.957031 L 80.992188 122.433594 L 87.183594 160.210938 L 89.375 159.851562 L 89.015625 157.660156 L 89.375 159.851562 L 91.570312 159.492188 L 84.660156 117.324219 L 42.234375 124.285156 L 49.496094 168.648438 L 91.929688 161.691406 L 91.570312 159.492188 L 89.375 159.851562 " fill-opacity="1" fill-rule="nonzero"/><path fill="#0f0a0a" d="M 63.378906 123.070312 L 54.730469 56.519531 L 67.765625 122.351562 Z M 63.378906 123.070312 " fill-opacity="1" fill-rule="nonzero"/><path fill="#0f0a0a" d="M 45.335938 127.082031 C 45.335938 127.082031 44.835938 126.359375 43.957031 125.097656 C 43.527344 124.449219 42.972656 123.734375 42.394531 122.78125 C 41.820312 121.820312 41.175781 120.730469 40.476562 119.546875 C 39.761719 118.367188 39.175781 117.042969 38.460938 115.671875 C 37.722656 114.316406 37.140625 112.796875 36.453125 111.269531 C 35.742188 109.75 35.199219 108.109375 34.558594 106.476562 C 33.925781 104.84375 33.417969 103.140625 32.839844 101.460938 C 32.324219 99.765625 31.824219 98.0625 31.355469 96.386719 C 30.933594 94.695312 30.457031 93.046875 30.113281 91.425781 C 29.347656 88.203125 28.78125 85.167969 28.328125 82.5625 C 27.433594 77.351562 27.136719 73.84375 27.136719 73.84375 C 27.136719 73.84375 27.714844 77.316406 29.007812 82.421875 C 29.664062 84.96875 30.464844 87.933594 31.472656 91.054688 C 31.9375 92.628906 32.535156 94.214844 33.085938 95.847656 C 33.671875 97.457031 34.296875 99.089844 34.929688 100.710938 C 35.628906 102.308594 36.253906 103.929688 36.996094 105.476562 C 37.75 107.007812 38.398438 108.5625 39.199219 109.96875 C 39.984375 111.394531 40.660156 112.808594 41.464844 114.050781 C 42.246094 115.296875 42.925781 116.539062 43.664062 117.566406 C 44.386719 118.597656 45.046875 119.542969 45.632812 120.378906 C 46.234375 121.210938 46.878906 121.929688 47.351562 122.523438 C 48.324219 123.714844 48.882812 124.398438 48.882812 124.398438 L 45.335938 127.082031 " fill-opacity="1" fill-rule="nonzero"/><path fill="#0f0a0a" d="M 56.554688 125.253906 C 56.554688 125.253906 56.355469 124.976562 55.980469 124.464844 C 55.613281 123.929688 55.0625 123.238281 54.378906 122.195312 C 53.71875 121.128906 52.839844 119.855469 52.050781 118.359375 C 51.199219 116.886719 50.363281 115.160156 49.46875 113.28125 C 49.058594 112.324219 48.625 111.332031 48.179688 110.304688 C 47.777344 109.261719 47.363281 108.183594 46.9375 107.078125 C 46.554688 105.957031 46.164062 104.808594 45.757812 103.632812 C 45.402344 102.445312 45.039062 101.234375 44.664062 100 C 43.980469 97.519531 43.320312 94.949219 42.757812 92.320312 C 42.191406 89.6875 41.671875 87.007812 41.25 84.3125 C 39.484375 73.550781 38.878906 62.679688 38.757812 54.546875 C 38.628906 46.414062 38.980469 41.007812 38.980469 41.007812 C 38.980469 41.007812 38.90625 46.429688 39.445312 54.519531 C 39.988281 62.609375 41.152344 73.386719 43.433594 83.902344 C 43.984375 86.535156 44.632812 89.144531 45.320312 91.691406 C 46.007812 94.246094 46.777344 96.722656 47.566406 99.09375 C 47.992188 100.269531 48.402344 101.429688 48.808594 102.5625 C 49.257812 103.679688 49.691406 104.765625 50.117188 105.828125 C 50.578125 106.871094 51.03125 107.882812 51.464844 108.863281 C 51.945312 109.820312 52.402344 110.746094 52.839844 111.632812 C 53.78125 113.375 54.648438 114.960938 55.523438 116.296875 C 56.34375 117.683594 57.167969 118.734375 57.800781 119.65625 C 58.457031 120.566406 59.097656 121.300781 59.476562 121.792969 C 59.875 122.289062 60.085938 122.546875 60.085938 122.546875 L 56.554688 125.253906 " fill-opacity="1" fill-rule="nonzero"/><path fill="#0f0a0a" d="M 77.054688 119.605469 C 77.054688 119.605469 77.445312 118.800781 78.125 117.386719 C 78.445312 116.683594 78.90625 115.816406 79.3125 114.847656 C 79.6875 113.875 80.109375 112.78125 80.570312 111.59375 C 81.0625 110.410156 81.40625 109.007812 81.875 107.582031 C 82.359375 106.15625 82.675781 104.597656 83.082031 102.992188 C 83.519531 101.402344 83.761719 99.707031 84.109375 98.003906 C 84.453125 96.300781 84.628906 94.53125 84.898438 92.785156 C 85.109375 91.019531 85.273438 89.253906 85.433594 87.507812 C 85.53125 85.765625 85.695312 84.042969 85.722656 82.375 C 85.863281 79.039062 85.839844 75.914062 85.773438 73.238281 C 85.628906 67.878906 85.195312 64.320312 85.195312 64.320312 C 85.195312 64.320312 85.902344 67.832031 86.46875 73.191406 C 86.742188 75.867188 87.011719 79.003906 87.128906 82.375 C 87.230469 84.0625 87.203125 85.808594 87.238281 87.585938 C 87.214844 89.355469 87.1875 91.164062 87.113281 92.96875 C 86.976562 94.769531 86.9375 96.585938 86.71875 98.363281 C 86.507812 100.132812 86.382812 101.890625 86.066406 103.570312 C 85.78125 105.253906 85.570312 106.898438 85.183594 108.421875 C 84.808594 109.957031 84.570312 111.414062 84.136719 112.753906 C 83.730469 114.101562 83.355469 115.332031 83.027344 116.425781 C 82.671875 117.496094 82.300781 118.347656 82.023438 119.089844 C 81.457031 120.550781 81.132812 121.382812 81.132812 121.382812 L 77.054688 119.605469 " fill-opacity="1" fill-rule="nonzero"/><path fill="#0f0a0a" d="M 69.511719 121.011719 C 69.511719 121.011719 69.628906 120.699219 69.839844 120.113281 C 70.03125 119.539062 70.402344 118.648438 70.722656 117.59375 C 71 116.535156 71.4375 115.316406 71.730469 113.765625 C 72.101562 112.25 72.367188 110.5 72.644531 108.585938 C 72.746094 107.621094 72.847656 106.613281 72.957031 105.574219 C 73.011719 104.523438 73.070312 103.4375 73.132812 102.328125 C 73.144531 101.207031 73.15625 100.054688 73.167969 98.875 C 73.132812 97.699219 73.089844 96.496094 73.050781 95.269531 C 72.90625 92.816406 72.695312 90.277344 72.367188 87.710938 C 72.039062 85.140625 71.644531 82.53125 71.136719 79.941406 C 69.195312 69.546875 65.972656 59.390625 63.21875 51.914062 C 60.460938 44.4375 58.171875 39.621094 58.171875 39.621094 C 58.171875 39.621094 60.703125 44.308594 63.859375 51.660156 C 67.011719 59.007812 70.789062 69.03125 73.3125 79.46875 C 73.957031 82.074219 74.5 84.707031 74.972656 87.316406 C 75.449219 89.917969 75.800781 92.507812 76.082031 95.027344 C 76.1875 96.296875 76.296875 97.539062 76.398438 98.753906 C 76.445312 99.984375 76.5 101.179688 76.546875 102.347656 C 76.546875 103.519531 76.542969 104.652344 76.542969 105.757812 C 76.484375 106.859375 76.429688 107.929688 76.375 108.953125 C 76.191406 111 76.003906 112.886719 75.691406 114.542969 C 75.464844 116.195312 75.039062 117.679688 74.773438 118.890625 C 74.476562 120.078125 74.179688 120.898438 74.011719 121.511719 C 73.824219 122.109375 73.726562 122.425781 73.726562 122.425781 L 69.511719 121.011719 " fill-opacity="1" fill-rule="nonzero"/></svg>