<svg xmlns="http://www.w3.org/2000/svg" xmlns:xlink="http://www.w3.org/1999/xlink" width="500" zoomAndPan="magnify" viewBox="0 0 375 374.999991" height="500" preserveAspectRatio="xMidYMid meet" version="1.0"><defs><clipPath id="f11b0181d5"><path d="M 5.390625 0 L 363 0 L 363 358 L 5.390625 358 Z M 5.390625 0 " clip-rule="nonzero"/></clipPath></defs><g clip-path="url(#f11b0181d5)"><path fill="#00ff08" d="M 362.761719 178.679688 C 362.761719 186.191406 362.289062 193.671875 361.34375 201.125 C 360.398438 208.574219 358.988281 215.9375 357.113281 223.210938 C 355.238281 230.484375 352.917969 237.613281 350.144531 244.59375 C 347.371094 251.574219 344.171875 258.351562 340.542969 264.929688 C 302.457031 333.996094 225.390625 367.941406 151.859375 354.472656 C 142.582031 352.773438 137.257812 342.917969 140.882812 334.207031 C 141.207031 333.433594 141.59375 332.691406 142.042969 331.980469 C 142.492188 331.273438 143 330.605469 143.5625 329.980469 C 144.125 329.359375 144.738281 328.785156 145.398438 328.265625 C 146.058594 327.746094 146.757812 327.289062 147.496094 326.886719 C 148.234375 326.488281 149 326.152344 149.796875 325.878906 C 150.589844 325.609375 151.402344 325.410156 152.234375 325.277344 C 153.0625 325.144531 153.898438 325.082031 154.738281 325.09375 C 155.578125 325.101562 156.410156 325.183594 157.238281 325.335938 C 166.117188 326.949219 175.070312 327.753906 184.09375 327.75 C 266.421875 327.75 333.164062 261.007812 333.164062 178.679688 C 333.164062 96.015625 265.871094 29.0625 183.078125 29.617188 C 100.960938 30.164062 34.992188 96.621094 35.027344 178.738281 C 35.046875 234.648438 65.847656 283.363281 111.402344 308.851562 C 112.011719 309.195312 112.585938 309.589844 113.128906 310.03125 C 113.667969 310.476562 114.164062 310.964844 114.621094 311.496094 C 115.074219 312.027344 115.476562 312.59375 115.832031 313.199219 C 116.183594 313.800781 116.480469 314.433594 116.722656 315.089844 C 116.964844 315.742188 117.148438 316.417969 117.273438 317.105469 C 117.394531 317.792969 117.457031 318.488281 117.457031 319.1875 C 117.457031 319.886719 117.398438 320.578125 117.273438 321.269531 C 117.152344 321.957031 116.96875 322.628906 116.730469 323.285156 L 114.683594 328.859375 C 112.1875 335.664062 104.214844 338.6875 97.863281 335.195312 L 97.738281 335.128906 C 96.28125 334.324219 94.757812 333.667969 93.171875 333.164062 C 91.585938 332.65625 89.964844 332.3125 88.3125 332.121094 C 86.65625 331.933594 85 331.910156 83.339844 332.046875 C 81.679688 332.183594 80.050781 332.480469 78.449219 332.9375 L 24.863281 348.191406 C 24.617188 348.261719 24.371094 348.316406 24.121094 348.351562 C 23.867188 348.390625 23.617188 348.410156 23.363281 348.417969 C 23.109375 348.421875 22.855469 348.414062 22.601562 348.386719 C 22.351562 348.359375 22.101562 348.320312 21.851562 348.261719 C 21.605469 348.203125 21.363281 348.128906 21.125 348.039062 C 20.886719 347.949219 20.65625 347.847656 20.433594 347.730469 C 20.207031 347.609375 19.992188 347.480469 19.785156 347.332031 C 19.574219 347.1875 19.378906 347.027344 19.191406 346.859375 C 19.003906 346.6875 18.824219 346.503906 18.660156 346.3125 C 18.496094 346.117188 18.34375 345.917969 18.207031 345.703125 C 18.066406 345.492188 17.941406 345.269531 17.832031 345.042969 C 17.71875 344.8125 17.625 344.578125 17.542969 344.339844 C 17.460938 344.097656 17.394531 343.855469 17.347656 343.605469 C 17.296875 343.355469 17.261719 343.105469 17.242188 342.851562 C 17.226562 342.597656 17.222656 342.34375 17.238281 342.089844 C 17.25 341.839844 17.28125 341.585938 17.328125 341.335938 L 28.839844 279.144531 C 29.363281 276.300781 29.40625 273.453125 28.964844 270.59375 C 28.519531 267.738281 27.621094 265.035156 26.257812 262.484375 C 22.855469 256.066406 19.851562 249.460938 17.253906 242.675781 C 14.652344 235.890625 12.476562 228.96875 10.71875 221.917969 C 8.964844 214.867188 7.644531 207.734375 6.757812 200.519531 C 5.871094 193.308594 5.429688 186.066406 5.425781 178.800781 C 5.394531 80.09375 85.386719 0.046875 184.09375 0.0117188 C 282.769531 0.0117188 362.761719 80.007812 362.761719 178.679688 Z M 362.761719 178.679688 " fill-opacity="1" fill-rule="nonzero"/></g><path fill="#00ff08" d="M 247.832031 237.378906 L 241.304688 246.8125 C 240.820312 247.507812 240.292969 248.164062 239.714844 248.785156 C 239.136719 249.402344 238.519531 249.972656 237.859375 250.5 C 237.195312 251.027344 236.5 251.503906 235.769531 251.929688 C 235.039062 252.355469 234.28125 252.726562 233.496094 253.042969 C 232.714844 253.355469 231.910156 253.613281 231.085938 253.8125 C 230.265625 254.007812 229.433594 254.144531 228.589844 254.222656 C 227.75 254.296875 226.90625 254.3125 226.0625 254.265625 C 225.21875 254.21875 224.382812 254.109375 223.550781 253.941406 C 139.621094 236.820312 121.367188 158.886719 117.402344 126.675781 C 117.28125 125.703125 117.246094 124.730469 117.289062 123.753906 C 117.332031 122.773438 117.457031 121.808594 117.664062 120.851562 C 117.871094 119.898438 118.160156 118.964844 118.523438 118.058594 C 118.886719 117.148438 119.324219 116.28125 119.835938 115.445312 C 120.347656 114.613281 120.925781 113.828125 121.570312 113.09375 C 122.214844 112.355469 122.917969 111.679688 123.675781 111.0625 C 124.433594 110.445312 125.238281 109.894531 126.089844 109.414062 C 126.941406 108.933594 127.828125 108.527344 128.75 108.195312 L 140.125 104.097656 C 140.742188 103.878906 141.367188 103.691406 142.003906 103.539062 C 142.554688 103.40625 143.113281 103.304688 143.675781 103.226562 C 144.242188 103.152344 144.804688 103.105469 145.375 103.082031 C 145.941406 103.0625 146.511719 103.070312 147.078125 103.105469 C 147.644531 103.140625 148.210938 103.203125 148.769531 103.292969 C 149.332031 103.382812 149.886719 103.503906 150.4375 103.648438 C 150.988281 103.792969 151.527344 103.964844 152.058594 104.164062 C 152.59375 104.363281 153.113281 104.585938 153.625 104.835938 C 154.136719 105.085938 154.632812 105.359375 155.117188 105.65625 C 155.601562 105.957031 156.070312 106.277344 156.519531 106.621094 C 156.972656 106.964844 157.40625 107.332031 157.824219 107.71875 C 158.242188 108.105469 158.636719 108.511719 159.011719 108.9375 C 159.390625 109.367188 159.742188 109.808594 160.078125 110.269531 C 160.410156 110.730469 160.71875 111.207031 161.003906 111.699219 C 161.289062 112.191406 161.550781 112.695312 161.789062 113.210938 C 162.023438 113.726562 162.234375 114.253906 162.417969 114.792969 C 162.605469 115.332031 162.761719 115.875 162.894531 116.429688 L 167.828125 137.257812 C 168.132812 138.542969 168.285156 139.847656 168.292969 141.167969 C 168.296875 142.488281 168.15625 143.796875 167.863281 145.082031 C 167.574219 146.371094 167.140625 147.613281 166.5625 148.800781 C 165.988281 149.992188 165.289062 151.101562 164.460938 152.132812 L 160.765625 156.722656 C 160.222656 157.398438 159.734375 158.113281 159.296875 158.863281 C 158.863281 159.613281 158.484375 160.394531 158.164062 161.199219 C 157.847656 162.007812 157.589844 162.832031 157.390625 163.679688 C 157.195312 164.523438 157.0625 165.378906 156.996094 166.246094 C 156.925781 167.109375 156.925781 167.976562 156.984375 168.84375 C 157.046875 169.707031 157.171875 170.5625 157.363281 171.410156 C 157.550781 172.257812 157.804688 173.085938 158.117188 173.894531 C 158.429688 174.707031 158.800781 175.488281 159.230469 176.242188 C 166.90625 189.761719 178.71875 199.515625 187.449219 205.394531 C 188.21875 205.914062 189.027344 206.363281 189.871094 206.753906 C 190.714844 207.140625 191.582031 207.457031 192.476562 207.707031 C 193.371094 207.953125 194.28125 208.128906 195.203125 208.230469 C 196.125 208.332031 197.050781 208.359375 197.976562 208.3125 C 198.90625 208.265625 199.820312 208.144531 200.730469 207.949219 C 201.636719 207.757812 202.523438 207.492188 203.386719 207.15625 C 204.253906 206.816406 205.085938 206.414062 205.886719 205.945312 C 206.6875 205.472656 207.441406 204.941406 208.15625 204.351562 C 208.878906 203.753906 209.640625 203.222656 210.445312 202.75 C 211.253906 202.28125 212.089844 201.875 212.960938 201.539062 C 213.832031 201.203125 214.726562 200.941406 215.636719 200.746094 C 216.550781 200.554688 217.476562 200.4375 218.40625 200.394531 C 219.339844 200.351562 220.269531 200.382812 221.199219 200.488281 C 222.125 200.597656 223.039062 200.777344 223.9375 201.03125 C 224.835938 201.285156 225.707031 201.609375 226.554688 202.003906 C 227.398438 202.398438 228.207031 202.859375 228.980469 203.386719 L 243.328125 213.15625 L 243.441406 213.230469 C 243.90625 213.554688 244.359375 213.898438 244.792969 214.269531 C 245.226562 214.636719 245.640625 215.023438 246.035156 215.433594 C 246.429688 215.839844 246.804688 216.269531 247.15625 216.714844 C 247.511719 217.160156 247.839844 217.621094 248.148438 218.097656 C 248.457031 218.578125 248.738281 219.066406 249 219.574219 C 249.257812 220.078125 249.492188 220.597656 249.703125 221.125 C 249.910156 221.652344 250.09375 222.191406 250.25 222.738281 C 250.40625 223.285156 250.535156 223.835938 250.636719 224.398438 C 250.738281 224.957031 250.8125 225.519531 250.859375 226.085938 C 250.902344 226.652344 250.921875 227.21875 250.914062 227.789062 C 250.902344 228.355469 250.867188 228.921875 250.800781 229.488281 C 250.738281 230.050781 250.644531 230.613281 250.523438 231.167969 C 250.402344 231.722656 250.257812 232.273438 250.082031 232.8125 C 249.910156 233.355469 249.710938 233.886719 249.484375 234.40625 C 249.257812 234.929688 249.007812 235.4375 248.730469 235.933594 C 248.453125 236.429688 248.15625 236.914062 247.832031 237.378906 Z M 247.832031 237.378906 " fill-opacity="1" fill-rule="nonzero"/></svg>